<svg width="167" height="38" fill="none" xmlns="http://www.w3.org/2000/svg">
  <mask id="a" style="mask-type:alpha" maskUnits="userSpaceOnUse" x="0" y="0" width="20" height="29">
    <path d="M.5 0h18.543v29H.5V0Z" fill="#fff" />
  </mask>
  <g mask="url(#a)">
    <path fill-rule="evenodd" clip-rule="evenodd"
      d="m5.303 0 13.271 13.367a1.62 1.62 0 0 1-.006 2.287L5.178 29 .5 24.19l8.474-8.536a1.62 1.62 0 0 0 0-2.28L.5 4.838 5.303 0Z"
      fill="#0081BD" />
  </g>
  <mask id="b" style="mask-type:alpha" maskUnits="userSpaceOnUse" x="14" y="0" width="19" height="29">
    <path d="M14.46 0h18.544v29H14.46V0Z" fill="#fff" />
  </mask>
  <g mask="url(#b)">
    <path fill-rule="evenodd" clip-rule="evenodd"
      d="m19.264 0 13.271 13.367a1.62 1.62 0 0 1-.006 2.287L19.14 29l-4.678-4.81 8.474-8.536a1.62 1.62 0 0 0 0-2.28l-8.474-8.536L19.264 0Z"
      fill="#A4D6F3" />
  </g>
  <path
    d="M43.134 37.075c6.513 0 8.866-5.212 8.866-10.165V0h-6v26.91c0 2-1 4.393-3 4.393-.5 0-2.245 0-3.454-.429L39 36.412c1.521.468 3.393.663 4.134.663ZM166.174 29l-9.905-29H149.6l-9.944 29h6.552l1.989-6.268h9.437L159.662 29h6.512ZM152.876 5.876l3.042 9.52h-6.045l3.003-9.52ZM137.653 29l-6.903-12.55c3.471-.784 6.294-4.65 6.294-8.45 0-4.5-2.823-8-9.063-8h-10.997v29h6.123V16.45h1.248L130.516 29h7.137Zm-10.49-23.633c2.495 0 3.381 1.633 3.381 3.133s-.847 3-3.537 3h-3.9V5.367h4.056ZM101.521 16.453H111.27V11h-9.749V5.367h11.465V0H95.398v29h17.588v-5.367h-11.465v-7.18ZM64.547 29V0h-6v29h6ZM69.547 0v5.766h7.66V29h6.608V5.766h7.66V0H69.548Z"
    fill="#fff" />
</svg>
